<svg width="240" height="140" viewBox="0 0 240 140" fill="none" xmlns="http://www.w3.org/2000/svg">
<g clip-path="url(#clip0_299_6673)">
<rect width="240" height="140" rx="13" fill="#E04C6D"/>
<path d="M156.865 101.585C164.537 106.711 173.557 109.448 182.785 109.448C185.023 109.431 187.258 109.254 189.472 108.919L193.787 123.972C180.667 126.381 167.121 124.529 155.129 118.688C143.137 112.846 133.329 103.321 127.138 91.5052C120.948 79.6896 118.7 66.2032 120.723 53.0185C122.747 39.8338 128.936 27.6423 138.385 18.227C147.834 8.81172 160.047 2.66645 173.239 0.689967C186.431 -1.28651 199.909 1.00946 211.703 7.24211C223.496 13.4748 232.986 23.3171 238.785 35.3299C244.584 47.3426 246.387 60.8955 243.932 74.0066L229.104 68.1749C229.32 66.3894 229.431 64.5928 229.438 62.7942C229.438 53.5671 226.702 44.5471 221.575 36.875C216.449 29.2029 209.163 23.2233 200.638 19.6922C192.113 16.1611 182.733 15.2372 173.683 17.0373C164.633 18.8374 156.32 23.2808 149.796 29.8054C143.271 36.3299 138.828 44.6428 137.028 53.6926C135.228 62.7425 136.151 72.1229 139.683 80.6477C143.214 89.1725 149.193 96.4587 156.865 101.585Z" fill="url(#paint0_linear_299_6673)"/>
<path d="M182.784 47.2427C185.552 47.2505 188.268 47.9995 190.649 49.4121C193.029 50.8246 194.988 52.849 196.322 55.2749L213.824 62.164C213.7 56.0383 211.77 50.0856 208.275 45.0531C204.78 40.0206 199.877 36.1325 194.18 33.8766C188.483 31.6207 182.247 31.0976 176.255 32.3729C170.262 33.6482 164.779 36.6652 160.495 41.0451C156.21 45.425 153.315 50.9728 152.172 56.9923C151.029 63.0117 151.69 69.2347 154.071 74.8802C156.452 80.5256 160.447 85.3421 165.555 88.7252C170.664 92.1082 176.657 93.9071 182.784 93.8961C183.259 93.8961 183.735 93.8322 184.21 93.7683C184.512 93.7277 184.815 93.687 185.117 93.6628L180.662 78.1117C176.866 77.4592 173.447 75.4214 171.068 72.3929C168.689 69.3645 167.518 65.5608 167.782 61.7186C168.046 57.8763 169.727 54.2687 172.498 51.5945C175.27 48.9202 178.935 47.3696 182.784 47.2427Z" fill="url(#paint1_linear_299_6673)"/>
<path d="M244.32 86.6963L188.989 64.9248L205.1 121.111L216.686 103.359L236.202 124.999L244.989 117.161L225.55 95.6849L244.32 86.6963Z" fill="url(#paint2_linear_299_6673)"/>
</g>
<defs>
<linearGradient id="paint0_linear_299_6673" x1="288.826" y1="-40.2397" x2="150.933" y2="109.239" gradientUnits="userSpaceOnUse">
<stop offset="0.0466922" stop-color="white" stop-opacity="0.3"/>
<stop offset="1" stop-color="white" stop-opacity="0"/>
</linearGradient>
<linearGradient id="paint1_linear_299_6673" x1="288.826" y1="-40.2397" x2="150.933" y2="109.239" gradientUnits="userSpaceOnUse">
<stop offset="0.0466922" stop-color="white" stop-opacity="0.3"/>
<stop offset="1" stop-color="white" stop-opacity="0"/>
</linearGradient>
<linearGradient id="paint2_linear_299_6673" x1="288.826" y1="-40.2397" x2="150.933" y2="109.239" gradientUnits="userSpaceOnUse">
<stop offset="0.0466922" stop-color="white" stop-opacity="0.3"/>
<stop offset="1" stop-color="white" stop-opacity="0"/>
</linearGradient>
<clipPath id="clip0_299_6673">
<rect width="240" height="140" rx="13" fill="white"/>
</clipPath>
</defs>
</svg>
