<svg width="240" height="140" viewBox="0 0 240 140" fill="none" xmlns="http://www.w3.org/2000/svg">
<g clip-path="url(#clip0_299_6677)">
<rect width="240" height="140" rx="13" fill="#1491D4"/>
<path d="M199.297 12.3159C203.685 13.6113 207.385 16.5357 209.613 20.4682C211.841 24.4007 212.421 29.0315 211.229 33.3769C210.545 36.2911 209.077 38.9714 206.978 41.1378C204.879 43.3041 202.226 44.8768 199.297 45.692C197.957 46.0341 196.699 46.6331 195.596 47.4545C194.493 48.276 193.566 49.3037 192.869 50.4784C192.172 51.653 191.718 52.9518 191.534 54.2994C191.35 55.647 191.438 57.0169 191.795 58.3306C192.416 60.5323 193.756 62.4731 195.608 63.855C197.46 65.2369 199.723 65.9836 202.049 65.9806C202.981 65.9796 203.91 65.8604 204.811 65.6258C211.4 63.8664 217.387 60.4005 222.146 55.5903C226.905 50.78 230.261 44.8023 231.863 38.2821C234.338 28.6745 232.896 18.4969 227.843 9.91889C222.789 1.34084 214.525 -4.95918 204.811 -7.63865C202.099 -8.35847 199.207 -7.99395 196.768 -6.62487C194.329 -5.25579 192.541 -2.99378 191.795 -0.333251C191.435 0.981207 191.344 2.35282 191.527 3.70212C191.71 5.05142 192.163 6.35172 192.861 7.52792C193.558 8.70412 194.486 9.73311 195.591 10.5549C196.695 11.3768 197.955 11.9751 199.297 12.3159Z" fill="url(#paint0_linear_299_6677)"/>
<path d="M127.107 76.588H180.383C190.449 76.8349 200.008 81.0606 206.963 88.3389C213.919 95.6171 217.705 105.354 217.491 115.418V129.539C217.491 132.314 216.389 134.975 214.426 136.936C212.464 138.898 209.802 140 207.027 140C204.251 140 201.589 138.898 199.627 136.936C197.664 134.975 196.562 132.314 196.562 129.539V115.418C196.744 110.937 195.144 106.566 192.113 103.259C189.082 99.9531 184.865 97.98 180.383 97.7709H127.107C122.627 97.9827 118.413 99.9569 115.384 103.263C112.355 106.569 110.757 110.938 110.938 115.418V129.539C110.938 132.314 109.836 134.975 107.873 136.936C105.911 138.898 103.249 140 100.474 140C97.6982 140 95.0366 138.898 93.074 136.936C91.1115 134.975 90.0088 132.314 90.0088 129.539V115.418C89.7925 105.355 93.5759 95.6181 100.53 88.3395C107.484 81.061 117.041 76.8349 127.107 76.588Z" fill="url(#paint1_linear_299_6677)"/>
<path d="M226.984 76.6803C228.407 76.4961 229.853 76.5882 231.239 76.9515C239.635 79.3709 246.989 84.4027 252.181 91.2796C257.373 98.1566 260.117 106.501 259.996 115.042V129.384C259.996 132.2 258.85 134.9 256.81 136.891C254.769 138.882 252.001 140 249.116 140C246.23 140 243.463 138.882 241.422 136.891C239.382 134.9 238.235 132.2 238.235 129.384V115.052C238.342 111.201 237.156 107.421 234.858 104.288C232.56 101.154 229.276 98.8394 225.505 97.6953C222.714 96.9202 220.348 95.1018 218.922 92.6351C217.496 90.1685 217.125 87.2526 217.889 84.5205C218.252 83.1657 218.885 81.8944 219.754 80.7796C220.622 79.6648 221.709 78.7287 222.95 78.0252C224.19 77.3216 225.562 76.8646 226.984 76.6803Z" fill="url(#paint2_linear_299_6677)"/>
<path fill-rule="evenodd" clip-rule="evenodd" d="M175.056 59.9944C168.881 64.0044 161.648 66.0979 154.274 66.0089C144.472 65.9481 135.095 62.0171 128.206 55.0804C121.317 48.1436 117.48 38.7691 117.539 29.0185C117.539 21.6835 119.732 14.5143 123.838 8.42193C127.945 2.32955 133.78 -2.41095 140.601 -5.19699C147.422 -7.98302 154.923 -8.68871 162.148 -7.22466C169.374 -5.76061 175.999 -2.19267 181.181 3.02553C186.363 8.24373 189.869 14.8766 191.252 22.0813C192.636 29.2861 191.835 36.7374 188.951 43.4882C186.067 50.2389 181.23 55.9843 175.056 59.9944ZM163.177 15.7491C160.532 14.0305 157.433 13.1327 154.274 13.1699C152.194 13.1822 150.137 13.6021 148.221 14.4052C146.304 15.2083 144.565 16.379 143.103 17.8507C141.641 19.3224 140.484 21.0662 139.7 22.9824C138.915 24.8985 138.518 26.9496 138.53 29.0185C138.531 32.161 139.47 35.2327 141.229 37.8429C142.989 40.4531 145.488 42.4839 148.41 43.6777C151.333 44.8715 154.546 45.1745 157.642 44.5476C160.738 43.9206 163.576 42.3923 165.797 40.157C168.017 37.9217 169.52 35.0804 170.113 31.9938C170.706 28.9072 170.363 25.7149 169.129 22.8224C167.894 19.93 165.822 17.4678 163.177 15.7491Z" fill="url(#paint3_linear_299_6677)"/>
</g>
<defs>
<linearGradient id="paint0_linear_299_6677" x1="319.604" y1="-55.6438" x2="159.667" y2="143.503" gradientUnits="userSpaceOnUse">
<stop offset="0.0466922" stop-color="white" stop-opacity="0.3"/>
<stop offset="1" stop-color="white" stop-opacity="0"/>
</linearGradient>
<linearGradient id="paint1_linear_299_6677" x1="319.604" y1="-55.6438" x2="159.667" y2="143.503" gradientUnits="userSpaceOnUse">
<stop offset="0.0466922" stop-color="white" stop-opacity="0.3"/>
<stop offset="1" stop-color="white" stop-opacity="0"/>
</linearGradient>
<linearGradient id="paint2_linear_299_6677" x1="319.604" y1="-55.6438" x2="159.667" y2="143.503" gradientUnits="userSpaceOnUse">
<stop offset="0.0466922" stop-color="white" stop-opacity="0.3"/>
<stop offset="1" stop-color="white" stop-opacity="0"/>
</linearGradient>
<linearGradient id="paint3_linear_299_6677" x1="319.604" y1="-55.6438" x2="159.667" y2="143.503" gradientUnits="userSpaceOnUse">
<stop offset="0.0466922" stop-color="white" stop-opacity="0.3"/>
<stop offset="1" stop-color="white" stop-opacity="0"/>
</linearGradient>
<clipPath id="clip0_299_6677">
<rect width="240" height="140" rx="13" fill="white"/>
</clipPath>
</defs>
</svg>
