<svg width="40" height="37" viewBox="0 0 40 37" fill="none" xmlns="http://www.w3.org/2000/svg">
<path fill-rule="evenodd" clip-rule="evenodd" d="M35.7596 15.6683C36.6407 16.4133 37.2299 16.94 37.1733 18.156L36.8992 23.8875L39.6589 21.2662C39.8564 19.8742 39.8963 18.5702 39.9629 17.2139C40.0572 15.3242 40.0739 14.8498 38.7079 13.7174C35.8085 11.3154 32.9135 9.15177 30.024 6.73313C28.7768 5.71088 27.9324 5.96811 26.5698 6.86453L16.9404 13.9323C15.1673 15.2396 15.1173 16.4344 16.6253 17.783L23.8745 23.6002L21.3479 25.6135C20.5068 26.2827 20.104 26.0511 19.4216 25.4865L7.66511 15.6572C6.16157 14.4122 6.63094 13.8465 8.27096 12.6884L19.9353 4.44922C20.9972 3.69868 21.7107 3.94366 22.6195 4.65968L24.2817 5.96922L26.653 4.0205L22.3643 0.570699C21.4 -0.198769 19.9697 -0.175384 18.9045 0.551769L2.09702 12.0348C-0.0634195 13.5102 -0.0612003 13.841 0.0275695 16.283L0.121887 18.8664C0.178478 20.431 0.676699 21.4878 1.88175 22.4543C8.10341 27.4475 12.0304 30.659 18.2565 35.6455C19.8077 36.8883 21.8417 37.1967 23.6526 36.1054L29.5091 30.7091C29.68 28.2081 29.6334 27.1402 29.6723 25.3874C29.599 24.5712 29.528 24.1893 28.9643 23.6302C28.4938 23.1837 27.9712 22.7761 27.4541 22.3619C25.1428 20.5078 22.8137 18.6649 20.5034 16.8097C19.7988 16.1082 19.8377 15.4256 20.6177 14.7218C20.9284 14.4323 21.2314 14.1828 21.5376 14.0158C22.1379 13.6884 22.7538 13.6762 23.4828 14.2931L30.6676 20.3697C31.5486 21.1147 32.1378 21.6414 32.0812 22.8574L31.8072 28.5889L34.5668 25.9676C34.7643 24.5757 34.8032 23.6425 34.8708 22.2862C34.9652 20.3965 35.0328 19.705 33.6658 18.5725C31.532 16.8041 28.1033 14.0937 26.1303 12.4279C25.2682 11.6996 25.4102 11.066 26.2469 10.3143C27.4419 9.24086 27.9745 9.15734 29.1951 10.1428L35.7563 15.6683H35.7596Z" fill="white"/>
</svg>
